# xmcd
#
# Track frame offsets: 
#        150
#        24945
#        45031
#        60475
#        80202
#        96799
#        117924
#        138997
#        154280
#        172646
#
# Disc length: 2553 seconds
#
# Revision: 0
# Processed by: cddbd v1.5.2PL0 Copyright (c) Steve Scherf et al.
# Submitted via: ExactAudioCopy v1.0b1
#
DISCID=6e09f70a
DTITLE=FastForward - FastForward
DYEAR=2002
DGENRE=OPM
TTITLE0=Hanggang Matapos
TTITLE1=Dream
TTITLE2=Kanta
TTITLE3=Pagtumatagal...Lalong Tumitibay
TTITLE4=True Love Can Always Wait
TTITLE5=Nag-iisang Pag-ibig
TTITLE6=What Would I Do Without Your Love
TTITLE7=Ayoko Na
TTITLE8=Better Than Thank You
TTITLE9=I'll Be Over You
EXTD=
EXTT0=
EXTT1=
EXTT2=
EXTT3=
EXTT4=
EXTT5=
EXTT6=
EXTT7=
EXTT8=
EXTT9=
PLAYORDER=
